<?xml version="1.0" encoding="UTF-8" standalone="no"?>
<svg
   xmlns:dc="http://purl.org/dc/elements/1.1/"
   xmlns:cc="http://creativecommons.org/ns#"
   xmlns:rdf="http://www.w3.org/1999/02/22-rdf-syntax-ns#"
   xmlns:svg="http://www.w3.org/2000/svg"
   xmlns="http://www.w3.org/2000/svg"
   xmlns:sodipodi="http://sodipodi.sourceforge.net/DTD/sodipodi-0.dtd"
   xmlns:inkscape="http://www.inkscape.org/namespaces/inkscape"
   id="svg4542"
   version="1.1"
   viewBox="0 0 67.733332 67.733332"
   height="256"
   width="256"
   sodipodi:docname="new-call-symbolic.svg"
   inkscape:version="1.0.2 (e86c870879, 2021-01-15)"
   inkscape:export-filename="/home/chris/Downloads/new-call-symbolic.png"
   inkscape:export-xdpi="96"
   inkscape:export-ydpi="96">
  <sodipodi:namedview
     pagecolor="#ffffff"
     bordercolor="#666666"
     borderopacity="1"
     objecttolerance="10"
     gridtolerance="10"
     guidetolerance="10"
     inkscape:pageopacity="0"
     inkscape:pageshadow="2"
     inkscape:window-width="1500"
     inkscape:window-height="946"
     id="namedview8"
     showgrid="false"
     inkscape:snap-global="false"
     inkscape:zoom="2.6908643"
     inkscape:cx="41.162826"
     inkscape:cy="104.27257"
     inkscape:window-x="0"
     inkscape:window-y="0"
     inkscape:window-maximized="1"
     inkscape:current-layer="layer2" />
  <defs
     id="defs4536" />
  <metadata
     id="metadata4539">
    <rdf:RDF>
      <cc:Work
         rdf:about="">
        <dc:format>image/svg+xml</dc:format>
        <dc:type
           rdf:resource="http://purl.org/dc/dcmitype/StillImage" />
        <dc:title></dc:title>
      </cc:Work>
    </rdf:RDF>
  </metadata>
  <g
     inkscape:groupmode="layer"
     id="layer3"
     inkscape:label="Bottom" />
  <g
     inkscape:groupmode="layer"
     id="layer2"
     inkscape:label="Top">
    <g
       transform="matrix(16.045427,0.11202,-0.11202,16.045427,-49.295712,-4697.2891)"
       id="layer1">
      <path
         sodipodi:type="star"
         style="fill:#ff2a2a;fill-rule:evenodd;stroke-width:0.251692"
         id="path16"
         sodipodi:sides="8"
         sodipodi:cx="7.2411246"
         sodipodi:cy="294.80951"
         sodipodi:r1="2.2840915"
         sodipodi:r2="2.1102254"
         sodipodi:arg1="0.38526314"
         sodipodi:arg2="0.77796222"
         inkscape:flatsided="true"
         inkscape:rounded="0"
         inkscape:randomized="0"
         d="m 9.3577912,295.66788 -1.2269154,1.2453 -1.7481196,0.013 -1.245299,-1.22692 -0.012999,-1.74812 1.2269155,-1.2453 1.7481196,-0.013 1.245299,1.22692 z" />
      <path
         sodipodi:type="star"
         style="fill:#ffffff;fill-rule:evenodd;stroke-width:0.243827"
         id="path16-3"
         sodipodi:sides="8"
         sodipodi:cx="7.2384276"
         sodipodi:cy="294.80585"
         sodipodi:r1="2.2127137"
         sodipodi:r2="2.044281"
         sodipodi:arg1="0.38526314"
         sodipodi:arg2="0.77796222"
         inkscape:flatsided="true"
         inkscape:rounded="0"
         inkscape:randomized="0"
         d="m 9.2889485,295.63739 -1.1885744,1.20639 -1.6934909,0.0126 -1.2063835,-1.18858 -0.012593,-1.69349 1.1885744,-1.20638 1.6934909,-0.0126 1.2063835,1.18857 z" />
      <path
         sodipodi:type="star"
         style="fill:#ff2a2a;fill-rule:evenodd;stroke-width:0.235961"
         id="path16-7"
         sodipodi:sides="8"
         sodipodi:cx="7.2472711"
         sodipodi:cy="294.7991"
         sodipodi:r1="2.1413357"
         sodipodi:r2="1.9783363"
         sodipodi:arg1="0.38526314"
         sodipodi:arg2="0.77796222"
         inkscape:flatsided="true"
         inkscape:rounded="0"
         inkscape:randomized="0"
         d="m 9.231646,295.60382 -1.1502332,1.16747 -1.6388621,0.0122 -1.1674678,-1.15024 -0.012187,-1.63886 1.1502332,-1.16747 1.6388621,-0.0122 1.1674678,1.15023 z" />
    </g>
    <path
       id="path13805"
       d="m 53.006308,11.377605 c 1.846836,0 3.349941,1.477299 3.349941,3.35164 v 0.215765 c 0,22.879933 -18.616162,41.411239 -41.498497,41.411239 h -0.130727 c -1.884746,0 -3.349942,-1.54309 -3.349942,-3.459919 v -3.46004 -6.919833 c 0,-1.916835 1.542307,-3.460046 3.457119,-3.460046 h 6.916852 c 1.916109,0 3.458428,1.543208 3.458428,3.460046 v 1.621816 C 34.051641,41.010909 40.995938,34.063355 44.121069,25.216757 h -1.620744 c -1.916112,0 -3.458424,-1.54309 -3.458424,-3.459918 v -6.919971 c 0,-1.916687 1.542306,-3.459785 3.458424,-3.459785 h 3.458428 3.458426 3.349939 0.130728 0.130728 z"
       style="opacity:1;fill:#2e3436;fill-opacity:1;stroke:none;stroke-width:2.30606" />
  </g>
</svg>
